Coordinates
version=1
nRows=12
nColumns=46
inDegrees=yes

Units are S.I. units (second, meters, Newtons, ...)
Angles are in degrees.

endheader
time	pelvis_tilt	pelvis_list	pelvis_rotation	pelvis_tx	pelvis_ty	pelvis_tz	bb_angle	bb_tx	bb_ty	bb_tz	hip_flexion_r	hip_adduction_r	hip_rotation_r	knee_angle_r	knee_angle_r_beta	ankle_angle_r	subtalar_angle_r	mtp_angle_r	crank_angle_r	hip_flexion_l	hip_adduction_l	hip_rotation_l	knee_angle_l	knee_angle_l_beta	ankle_angle_l	subtalar_angle_l	mtp_angle_l	crank_angle_l	lumbar_extension	lumbar_bending	lumbar_rotation	arm_flex_r	arm_add_r	arm_rot_r	elbow_flex_r	pro_sup_r	wrist_flex_r	wrist_dev_r	arm_flex_l	arm_add_l	arm_rot_l	elbow_flex_l	pro_sup_l	wrist_flex_l	wrist_dev_l
      0.00000000	    -21.68071853	     -0.71205829	     -3.42212060	      0.14867057	      1.03791182	     -0.21954118	      0.00000000	      0.50000000	      0.00000000	      0.25000000	     89.20865289	     -1.57230784	      2.09950039	     84.76558577	      1.47943856	     -6.29017149	     -4.79214163	      0.00000000	      0.00000000	     58.61645447	     -5.65020099	      3.39633818	     77.83397480	      1.35845913	    -16.82987994	    -15.74993768	      0.00000000	      0.00000000	    -41.89079389	     -0.40470369	      2.51783782	     78.34521012	     -5.49714636	     25.70968557	     39.82273009	     45.62858492	      0.00000000	      0.00000000	     77.00066483	    -11.07532518	     25.73232030	     38.62604531	     44.44203568	      0.00000000	      0.00000000
      0.00500000	    -21.66256899	     -0.71889008	     -3.41924615	      0.14868832	      1.03802317	     -0.21954341	      0.00000000	      0.50000000	      0.00000000	      0.25000000	     89.16994331	     -1.57336653	      2.10413337	     84.74584956	      1.47909410	     -6.24557651	     -4.72343216	      0.00000000	      0.00000000	     58.58141918	     -5.65705539	      3.41410366	     77.81184167	      1.35807283	    -16.65725717	    -15.53364063	      0.00000000	      0.00000000	    -41.99230401	     -0.39230560	      2.56322185	     78.16776842	     -5.57529403	     25.23494426	     40.53741148	     45.61922771	      0.00000000	      0.00000000	     76.82299004	    -11.11792447	     25.24285608	     39.32323867	     44.46419041	      0.00000000	      0.00000000
      0.01000000	    -21.66696092	     -0.73662400	     -3.40936230	      0.14865010	      1.03795893	     -0.21959644	      0.00000000	      0.50000000	      0.00000000	      0.25000000	     89.19295138	     -1.58275994	      2.07941953	     84.77075194	      1.47952873	     -6.29391647	     -4.80814121	      0.00000000	      0.00000000	     58.61855908	     -5.65579478	      3.42596832	     77.83503045	      1.35847755	    -16.79012704	    -15.61319356	      0.00000000	      0.00000000	    -41.99629590	     -0.38884001	      2.54904223	     78.11265548	     -5.59381679	     25.12092720	     40.70027234	     45.61844167	      0.00000000	      0.00000000	     76.81480115	    -11.08885889	     25.14539974	     39.46404646	     44.47306257	      0.00000000	      0.00000000
      0.01500000	    -21.59208545	     -0.74214584	     -3.31133384	      0.14851653	      1.03815235	     -0.21963805	      0.00000000	      0.50000000	      0.00000000	      0.25000000	     89.10115437	     -1.65211267	      2.08512500	     84.74751137	      1.47912311	     -6.31510630	     -4.85731155	      0.00000000	      0.00000000	     58.54634505	     -5.55411680	      3.52449153	     77.83685673	      1.35850943	    -16.58548231	    -15.23646192	      0.00000000	      0.00000000	    -42.01910698	     -0.35977505	      2.50870512	     78.43433105	     -5.69252848	     26.02177131	     39.80551733	     45.67511769	      0.00000000	      0.00000000	     77.22275385	    -11.11066960	     26.25937232	     38.48963988	     44.53145753	      0.00000000	      0.00000000
      0.02000000	    -21.63518026	     -0.75210015	     -3.29781028	      0.14846232	      1.03828664	     -0.21968383	      0.00000000	      0.50000000	      0.00000000	      0.25000000	     89.14442242	     -1.67089964	      2.09685195	     84.75940346	      1.47933066	     -6.23717759	     -4.68679181	      0.00000000	      0.00000000	     58.58753812	     -5.54530316	      3.53205684	     77.79811448	      1.35783325	    -16.70097480	    -15.37871377	      0.00000000	      0.00000000	    -41.94656671	     -0.35754577	      2.47754224	     78.36935775	     -5.60197846	     25.72474635	     39.85221628	     45.22529956	      0.00000000	      0.00000000	     77.15837286	    -10.97831822	     25.94335164	     38.46068807	     44.19186199	      0.00000000	      0.00000000
      0.02500000	    -21.64418328	     -0.74046589	     -3.30838498	      0.14840587	      1.03828585	     -0.21961442	      0.00000000	      0.50000000	      0.00000000	      0.25000000	     89.16851186	     -1.65661836	      2.09205024	     84.75044727	      1.47917435	     -6.34549154	     -4.80315738	      0.00000000	      0.00000000	     58.60301119	     -5.56374345	      3.51717231	     77.79224420	      1.35773079	    -16.70462233	    -15.33061239	      0.00000000	      0.00000000	    -41.95397790	     -0.39121988	      2.50060813	     78.36091545	     -5.93284709	     26.45221508	     40.13621301	     45.07316771	      0.00000000	      0.00000000	     77.24511929	    -11.31892287	     26.94116802	     38.62198680	     44.19350939	      0.00000000	      0.00000000
      0.03000000	    -21.64434025	     -0.73163207	     -3.31114329	      0.14838628	      1.03832440	     -0.21959850	      0.00000000	      0.50000000	      0.00000000	      0.25000000	     89.17366592	     -1.64938944	      2.10738849	     84.75918362	      1.47932683	     -6.33169389	     -4.79623984	      0.00000000	      0.00000000	     58.59967823	     -5.56559855	      3.50786285	     77.77834614	      1.35748823	    -16.71799061	    -15.32407315	      0.00000000	      0.00000000	    -41.95117258	     -0.41186329	      2.48195230	     78.35344637	     -5.79532285	     26.22788915	     40.04262552	     44.84952316	      0.00000000	      0.00000000	     77.25684665	    -11.20516589	     26.66738067	     38.57008357	     44.02932450	      0.00000000	      0.00000000
      0.03500000	    -21.65218972	     -0.71549634	     -3.30683554	      0.14838085	      1.03831577	     -0.21961774	      0.00000000	      0.50000000	      0.00000000	      0.25000000	     89.19543106	     -1.65621741	      2.12683473	     84.77242250	      1.47955789	     -6.34739103	     -4.79229957	      0.00000000	      0.00000000	     58.60775591	     -5.54886590	      3.49498247	     77.77231824	      1.35738302	    -16.75130189	    -15.36635570	      0.00000000	      0.00000000	    -41.94122244	     -0.41999880	      2.47355145	     78.34244399	     -5.83675941	     26.23564136	     40.11554508	     44.88685576	      0.00000000	      0.00000000	     77.22513360	    -11.24048183	     26.71126575	     38.59616803	     44.07011207	      0.00000000	      0.00000000
      0.04000000	    -21.63506153	     -0.72978778	     -3.31536952	      0.14837692	      1.03837340	     -0.21960100	      0.00000000	      0.50000000	      0.00000000	      0.25000000	     89.17615868	     -1.63603946	      2.11788572	     84.77187060	      1.47954826	     -6.36161959	     -4.82796966	      0.00000000	      0.00000000	     58.58716971	     -5.57145695	      3.49838782	     77.76397475	      1.35723740	    -16.73533049	    -15.34355342	      0.00000000	      0.00000000	    -41.96127416	     -0.40784639	      2.48237107	     78.37468830	     -5.73695476	     26.11254584	     40.05006293	     44.59477664	      0.00000000	      0.00000000	     77.21200581	    -11.15315681	     26.45481212	     38.58313798	     43.84708761	      0.00000000	      0.00000000
      0.04500000	    -21.64539239	     -0.73334744	     -3.31712897	      0.14840480	      1.03832716	     -0.21956526	      0.00000000	      0.50000000	      0.00000000	      0.25000000	     89.19795787	     -1.62496858	      2.11484760	     84.79519264	      1.47995530	     -6.35979387	     -4.81486253	      0.00000000	      0.00000000	     58.60444526	     -5.58955989	      3.50001611	     77.77774343	      1.35747771	    -16.65946773	    -15.19920525	      0.00000000	      0.00000000	    -42.01173043	     -0.42495706	      2.50529021	     78.03082751	     -5.83256827	     25.47277353	     41.02194564	     44.62238106	      0.00000000	      0.00000000	     76.92299958	    -11.20897614	     25.78679696	     39.56213640	     43.90235113	      0.00000000	      0.00000000
      0.05000000	    -21.60906549	     -0.71919135	     -3.30452011	      0.14839871	      1.03843777	     -0.21962912	      0.00000000	      0.50000000	      0.00000000	      0.25000000	     89.16532035	     -1.66255563	      2.10691481	     84.79763430	      1.47999792	     -6.34046047	     -4.77670409	      0.00000000	      0.00000000	     58.54864730	     -5.57310584	      3.46132770	     77.74523800	      1.35691038	    -16.70246482	    -15.29076904	      0.00000000	      0.00000000	    -41.99134241	     -0.44058377	      2.42626876	     78.41142254	     -5.79704244	     26.23443758	     40.01382086	     44.64465047	      0.00000000	      0.00000000	     77.28199694	    -11.17792373	     26.67916051	     38.49855523	     43.91346884	      0.00000000	      0.00000000
      0.05500000	    -21.63110681	     -0.71665749	     -3.30926089	      0.14834756	      1.03837684	     -0.21960700	      0.00000000	      0.50000000	      0.00000000	      0.25000000	     89.19312796	     -1.62593711	      2.15204413	     84.79667927	      1.47998125	     -6.37685448	     -4.82966453	      0.00000000	      0.00000000	     58.57200802	     -5.55887104	      3.48706863	     77.74149657	      1.35684508	    -16.73491484	    -15.33847342	      0.00000000	      0.00000000	    -41.96262499	     -0.42560181	      2.46860159	     78.35079475	     -5.67119596	     25.92272512	     40.03887615	     44.44991263	      0.00000000	      0.00000000	     77.21591982	    -11.06929414	     26.25206341	     38.55267545	     43.75961982	      0.00000000	      0.00000000
